# AST/ASF file generated using VICON BodyLanguage
# -----------------------------------------------
:version 1.10
:name VICON
:units
  mass 1.0
  length 0.45
  angle deg
:documentation
   .ast/.asf automatically generated from VICON data using
   VICON BodyBuilder and BodyLanguage model FoxedUp or BRILLIANT.MOD
:root
   order TX TY TZ RX RY RZ
   axis XYZ
   position 0 0 0  
   orientation 0 0 0 
:bonedata
  begin
     id 1 
     name lhipjoint
     direction 0.722297 -0.617336 0.311742 
     length 2.6635 
     axis 0 0 0  XYZ
  end
  begin
     id 2 
     name lfemur
     direction 0.34202 -0.939693 0  
     length 7.39349  
     axis 0 0 20  XYZ
    dof rx ry rz
    limits (-160.0 20.0)
           (-70.0 70.0)
           (-60.0 70.0)
  end
  begin
     id 3 
     name ltibia
     direction 0.34202 -0.939693 0   
     length 7.36294   
     axis 0 0 20   XYZ
    dof rx
    limits (-10.0 170.0)
  end
  begin
     id 4 
     name lfoot
     direction 0.104879 -0.288152 0.951824   
     length 2.16981   
     axis -90 7.62852e-016 20   XYZ
    dof rx rz
    limits (-45.0 90.0)
           (-70.0 20.0)
  end
  begin
     id 5 
     name ltoes
     direction 1.53586e-011 -4.21895e-011 1   
     length 1.08218   
     axis -90 7.62852e-016 20   XYZ
    dof rx
    limits (-90.0 20.0)
  end
  begin
     id 6 
     name rhipjoint
     direction -0.75102 -0.589393 0.297631   
     length 2.78977  
     axis 0 0 0  XYZ 
  end
  begin
     id 7 
     name rfemur
     direction -0.34202 -0.939693 0   
     length 7.46076   
     axis 0 0 -20   XYZ
    dof rx ry rz
    limits (-160.0 20.0)
           (-70.0 70.0)
           (-70.0 60.0)
  end
  begin
     id 8 
     name rtibia
     direction -0.34202 -0.939693 0   
     length 7.31726   
     axis 0 0 -20   XYZ
    dof rx
    limits (-10.0 170.0)
 end
 begin
     id 9 
     name rfoot
     direction -0.107991 -0.296704 0.948844   
     length 2.09388  
     axis -90 -7.62852e-016 -20   XYZ
    dof rx rz
    limits (-45.0 90.0)
           (-20.0 70.0)
  end
  begin
     id 10 
     name rtoes
     direction -1.53559e-011 -4.21911e-011 1   
     length 1.04433   
     axis -90 -7.62852e-016 -20   XYZ
    dof rx
    limits (-90.0 20.0)
  end
  begin
     id 11 
     name lowerback
     direction 0.0165164 0.98272 0.184358   
     length 1.71896   
     axis 0 0 0   XYZ
    dof rx ry rz
    limits (-20.0 45.0)
           (-30.0 30.0)
           (-30.0 30.0)
  end
  begin
     id 12 
     name upperback
     direction -0.00887249 0.992297 0.123566   
     length 1.71504   
     axis 0 0 0   XYZ
    dof rx ry rz
    limits (-20.0 45.0)
           (-30.0 30.0)
           (-30.0 30.0)
  end
  begin
     id 13 
     name thorax
     direction -0.0157026 0.998908 0.0440032   
     length 1.77022   
     axis 0 0 0   XYZ
    dof rx ry rz
    limits (-20.0 45.0)
           (-30.0 30.0)
           (-30.0 30.0)
  end
  begin
     id 14 
     name lowerneck
     direction -0.0238856 0.998137 0.0561411   
     length 1.89341   
     axis 0 0 0   XYZ
    dof rx ry rz
    limits (-20.0 45.0)
           (-30.0 30.0)
           (-30.0 30.0)
  end
  begin
     id 15 
     name upperneck
     direction 0.0276574 0.952253 -0.304056   
     length 1.86999   
     axis 0 0 0   XYZ
    dof rx ry rz
    limits (-20.0 45.0)
           (-30.0 30.0)
           (-30.0 30.0)
  end
  begin
     id 16
     name head
     direction 0.00800083 0.994258 -0.106712  
     length 1.91492  
     axis 0 0 0   XYZ
    dof rx ry rz
    limits (-20.0 45.0)
           (-30.0 30.0)
           (-30.0 30.0)
  end
  begin
     id 17 
     name lclavicle
     direction 0.97203 0.225407 0.06595  
     length 3.34889  
     axis 0 0 0   XYZ
    dof ry rz
    limits (-20.0 10.0)
           (0.0 20.0)
  end
  begin
     id 18 
     name lhumerus
     direction 1 -4.48973e-011 2.20267e-027   
     length 4.85645   
     axis 180 -30 -90   XYZ
    dof rx ry rz
    limits (-60.0 90.0)
           (-90.0 90.0)
           (-90.0 90.0)
  end
  begin
     id 19
     name lradius
     direction 1 -4.4897e-011 4.60472e-027   
     length 2.79874   
     axis 180 -30 -90   XYZ
    dof rx
    limits (-10.0 170.0)
  end
  begin
     id 20
     name lwrist
     direction 1 -4.48952e-011 1.14928e-026   
     length 1.39937   
     axis -6.29373e-015 90 90   XYZ
    dof ry
    limits (-180.0 0.0)
 end
  begin
     id 21 
     name lhand
     direction 1 -4.48967e-011 2.29886e-026   
     length 0.573398   
     axis -1.46689e-014 90 90   XYZ
    dof rx rz
    limits (-90.0 90.0)
           (-45.0 45.0)
  end
  begin
     id 22 
     name lfingers
     direction 1 -4.48955e-011 4.59726e-026   
     length 0.462289   
     axis -2.93383e-014 90 90   XYZ
    dof rx
    limits (0.0 90.0)
  end
  begin
     id 23
     name lthumb
     direction 0.707107 -6.34866e-011 0.707107   
     length 0.663757   
     axis -90 45 5.69224e-014   XYZ
    dof rx rz
    limits (-45.0 45.0)
           (-45.0 45.0)
  end
  begin
     id 24 
     name rclavicle
     direction -0.981571 0.157346 0.108443   
     length 3.35257  
     axis 0 0 0   XYZ 
    dof ry rz
    limits (-10.0 20.0)
           (-20.0 0.0)
  end
  begin
     id 25 
     name rhumerus
     direction -1 -4.48967e-011 8.58308e-029  
     length 4.67018   
     axis 180 30 90   XYZ
    dof rx ry rz
    limits (-90.0 60.0)
           (-90.0 90.0)
           (-90.0 90.0)
  end
  begin
     id 26 
     name rradius
     direction -1 -4.48958e-011 4.52548e-027   
     length 2.65534   
     axis 180 30 90   XYZ
    dof rx
    limits (-10.0 170.0)
  end
  begin
     id 27 
     name rwrist
     direction -1 -4.48977e-011 1.14952e-026   
     length 1.32767   
     axis -6.29373e-015 -90 -90   XYZ
    dof ry
    limits (-180.0 0.0)
  end
  begin
     id 28
     name rhand
     direction -1 -4.48924e-011 2.29804e-026   
     length 0.594069   
     axis -1.46689e-014 -90 -90   XYZ
    dof rx rz
    limits (-90.0 90.0)
           (-45.0 45.0)
  end
  begin
     id 29
     name rfingers
     direction -1 -4.48998e-011 4.59888e-026   
     length 0.478954   
     axis -2.93383e-014 -90 -90   XYZ
    dof rx
    limits (0.0 90.0)
  end
  begin
     id 30
     name rthumb
     direction -0.707107 -6.34933e-011 0.707107   
     length 0.687685   
     axis -90 -45 -5.69224e-014   XYZ
    dof rx rz
    limits (-45.0 45.0)
           (-45.0 45.0)
  end
:hierarchy
  begin
    root lhipjoint rhipjoint lowerback
    lhipjoint lfemur
    lfemur ltibia
    ltibia lfoot
    lfoot ltoes
    rhipjoint rfemur
    rfemur rtibia
    rtibia rfoot
    rfoot rtoes
    lowerback upperback
    upperback thorax
    thorax lowerneck lclavicle rclavicle
    lowerneck upperneck
    upperneck head
    lclavicle lhumerus
    lhumerus lradius
    lradius lwrist
    lwrist lhand lthumb
    lhand lfingers
    rclavicle rhumerus
    rhumerus rradius
    rradius rwrist
    rwrist rhand rthumb
    rhand rfingers
  end

#!OML:ASF E:\pregnant2\Project 1\Capture day 1\Session 1\pregnant2.ASF
:FULLY-SPECIFIED
:DEGREES
224
root 7.70548 10.393 15.6487 10.7099 1.2695 4.36303
lowerback 7.94688 -1.40137 -4.47727
upperback -11.8399 -2.94289 -1.64482
thorax -17.839 -0.920005 1.2847
lowerneck -13.3497 -5.41664 -7.94392
upperneck 27.9892 -7.65943 6.16191
head 11.9406 -3.57022 2.54519
rclavicle -2.76808e-014 -1.45113e-014
rhumerus -29.0929 37.6937 -105.143
rradius 54.1214
rwrist 26.9027
rhand -8.89888 -2.06494
rfingers 7.12502
rthumb 17.0438 -31.3373
lclavicle -2.76808e-014 -1.45113e-014
lhumerus -29.0576 -36.1574 102.657
lradius 54.1457
lwrist -24.0893
lhand -5.10962 16.0887
lfingers 7.12502
lthumb 20.6881 45.006
rfemur -97.23 -8.98421 13.4325
rtibia 74.2527
rfoot 14.051 -4.6167
rtoes 5.08702
lfemur -93.841 0.119337 -19.6515
ltibia 66.5541
lfoot 14.8438 -5.29582
ltoes -18.3332
225
root 7.70544 10.3895 15.6466 10.642 1.28268 4.3591
lowerback 7.9963 -1.40022 -4.47239
upperback -11.839 -2.94389 -1.64522
thorax -17.8716 -0.920126 1.28334
lowerneck -13.3422 -5.39308 -7.91883
upperneck 28.0272 -7.62955 6.14454
head 11.9493 -3.55636 2.53964
rclavicle 1.85864e-014 -1.09332e-014
rhumerus -29.1005 37.7131 -105.154
rradius 54.0919
rwrist 26.8755
rhand -8.90289 -2.09453
rfingers 7.12502
rthumb 17.0399 -31.3672
lclavicle 1.85864e-014 -1.09332e-014
lhumerus -29.0546 -36.1516 102.671
lradius 54.0902
lwrist -24.0998
lhand -5.11532 16.0916
lfingers 7.12502
lthumb 20.6826 45.0095
rfemur -97.1802 -8.98845 13.429
rtibia 74.2746
rfoot 14.0521 -4.61655
rtoes 5.07536
lfemur -93.7947 0.111793 -19.6491
ltibia 66.5725
lfoot 14.85 -5.30565
ltoes -18.3293
226
root 7.70537 10.386 15.6445 10.5765 1.29642 4.35629
lowerback 8.04173 -1.39961 -4.46946
upperback -11.8377 -2.94563 -1.64542
thorax -17.9008 -0.920407 1.28333
lowerneck -13.3383 -5.37076 -7.89575
upperneck 28.0642 -7.60111 6.12885
head 11.9588 -3.54307 2.53475
rclavicle -3.03147e-015 8.74653e-015
rhumerus -29.1043 37.7246 -105.164
rradius 54.0577
rwrist 26.8477
rhand -8.9087 -2.122
rfingers 7.12502
rthumb 17.0343 -31.3951
lclavicle -3.03147e-015 8.74653e-015
lhumerus -29.0502 -36.1455 102.685
lradius 54.0354
lwrist -24.1169
lhand -5.12366 16.0927
lfingers 7.12502
lthumb 20.6746 45.0116
rfemur -97.1333 -8.99365 13.4242
rtibia 74.298
rfoot 14.0528 -4.61764
rtoes 5.07106
lfemur -93.7504 0.103191 -19.6471
ltibia 66.5892
lfoot 14.858 -5.31494
ltoes -18.3307
227
root 7.70545 10.3827 15.6424 10.515 1.3111 4.35432
lowerback 8.0802 -1.40022 -4.46603
upperback -11.8373 -2.94841 -1.64488
thorax -17.9263 -0.921276 1.28391
lowerneck -13.3306 -5.34901 -7.8765
upperneck 28.0956 -7.57309 6.1155
head 11.9656 -3.53019 2.53134
rclavicle 7.85199e-015 8.54774e-015
rhumerus -29.1069 37.7211 -105.174
rradius 54.0195
rwrist 26.8239
rhand -8.91149 -2.13614
rfingers 7.12502
rthumb 17.0316 -31.4095
lclavicle 7.85199e-015 8.54774e-015
lhumerus -29.0465 -36.1361 102.699
lradius 53.9809
lwrist -24.1388
lhand -5.12918 16.0936
lfingers 7.12502
lthumb 20.6693 45.013
rfemur -97.0895 -9.00139 13.4192
rtibia 74.3221
rfoot 14.0516 -4.61817
rtoes 5.07358
lfemur -93.71 0.0917751 -19.6431
ltibia 66.6026
lfoot 14.8731 -5.31431
ltoes -18.3036
228
root 7.70553 10.3797 15.6405 10.456 1.32427 4.35754
lowerback 8.11233 -1.4004 -4.46809
upperback -11.8349 -2.95126 -1.64623
thorax -17.945 -0.921842 1.28516
lowerneck -13.3265 -5.33042 -7.85543
upperneck 28.1233 -7.54888 6.09968
head 11.9718 -3.51906 2.52596
rclavicle -3.42904e-015 -1.25234e-014
rhumerus -29.1015 37.7032 -105.178
rradius 53.9797
rwrist 26.8114
rhand -8.91207 -2.14822
rfingers 7.12502
rthumb 17.0311 -31.4216
lclavicle -3.42904e-015 -1.25234e-014
lhumerus -29.0391 -36.1299 102.71
lradius 53.9275
lwrist -24.1619
lhand -5.13718 16.0941
lfingers 7.12502
lthumb 20.6616 45.0143
rfemur -97.0486 -9.00989 13.4092
rtibia 74.3473
rfoot 14.0481 -4.61853
rtoes 5.08491
lfemur -93.6688 0.0797788 -19.645
ltibia 66.6142
lfoot 14.8836 -5.31171
ltoes -18.277
229
root 7.7056 10.3768 15.6386 10.3987 1.33603 4.36463
lowerback 8.13981 -1.40007 -4.47369
upperback -11.8305 -2.95386 -1.64961
thorax -17.9578 -0.922209 1.28586
lowerneck -13.3238 -5.31474 -7.83184
upperneck 28.1451 -7.52805 6.08061
head 11.976 -3.50955 2.51831
rclavicle 2.18663e-015 9.93923e-016
rhumerus -29.0909 37.6853 -105.179
rradius 53.9414
rwrist 26.8119
rhand -8.91715 -2.15851
rfingers 7.12502
rthumb 17.0262 -31.4323
lclavicle 2.18663e-015 9.93923e-016
lhumerus -29.028 -36.1263 102.718
lradius 53.8755
lwrist -24.1889
lhand -5.1428 16.0934
lfingers 7.12502
lthumb 20.6562 45.0142
rfemur -97.0097 -9.01862 13.3959
rtibia 74.373
rfoot 14.0429 -4.61679
rtoes 5.09697
lfemur -93.6274 0.0674511 -19.6504
ltibia 66.6249
lfoot 14.8926 -5.30454
ltoes -18.2431
230
root 7.70553 10.374 15.6369 10.3445 1.34616 4.37467
lowerback 8.16327 -1.40034 -4.48689
upperback -11.826 -2.95814 -1.65184
thorax -17.9673 -0.922321 1.29234
lowerneck -13.3211 -5.30017 -7.80857
upperneck 28.1617 -7.50812 6.06057
head 11.9783 -3.50061 2.51013
rclavicle -4.96962e-016 -1.74931e-014
rhumerus -29.0774 37.6646 -105.177
rradius 53.8995
rwrist 26.8447
rhand -8.92722 -2.16194
rfingers 7.12502
rthumb 17.0165 -31.4366
lclavicle -4.96962e-016 -1.74931e-014
lhumerus -29.0156 -36.1211 102.724
lradius 53.8264
lwrist -24.2138
lhand -5.15135 16.091
lfingers 7.12502
lthumb 20.648 45.0127
rfemur -96.9746 -9.02627 13.3795
rtibia 74.3992
rfoot 14.0358 -4.61549
rtoes 5.11155
lfemur -93.5872 0.0566362 -19.6604
ltibia 66.6365
lfoot 14.8949 -5.29956
ltoes -18.2318
